<svg id="Layer_1" enable-background="new 0 0 512 512" height="512" viewBox="0 0 512 512" width="512" xmlns="http://www.w3.org/2000/svg"><g id="XMLID_1475_"><g id="XMLID_206_"><path id="XMLID_294_" d="m346 144c0-49.626-40.374-90-90-90s-90 40.374-90 90 40.374 90 90 90 90-40.374 90-90zm-160 0c0-38.598 31.402-70 70-70s70 31.402 70 70-31.402 70-70 70-70-31.402-70-70z"/><path id="XMLID_306_" d="m301.5 144c0-25.089-20.411-45.5-45.5-45.5s-45.5 20.411-45.5 45.5 20.411 45.5 45.5 45.5 45.5-20.411 45.5-45.5zm-71 0c0-14.061 11.439-25.5 25.5-25.5s25.5 11.439 25.5 25.5-11.439 25.5-25.5 25.5-25.5-11.439-25.5-25.5z"/><path id="XMLID_309_" d="m130 48c-17.645 0-32 14.355-32 32s14.355 32 32 32 32-14.355 32-32-14.355-32-32-32zm0 44c-6.617 0-12-5.383-12-12s5.383-12 12-12 12 5.383 12 12-5.383 12-12 12z"/><path id="XMLID_1112_" d="m462.5 268h-4.5v-221.921c0-25.408-20.671-46.079-46.079-46.079h-311.842c-25.408 0-46.079 20.671-46.079 46.079v221.921h-4.5c-16.818 0-30.5 13.682-30.5 30.5v57c0 16.818 13.682 30.5 30.5 30.5h24.5v116c0 5.523 4.477 10 10 10h344c5.523 0 10-4.477 10-10v-116h24.5c16.818 0 30.5-13.682 30.5-30.5v-57c0-16.818-13.682-30.5-30.5-30.5zm-322.121 224 67.944-98.281 66.437 98.281zm172.282 0 29.932-43.296 29.268 43.296zm105.339 0h-21.998l-45.032-66.616c-1.85-2.736-4.93-4.382-8.232-4.399-.018 0-.035 0-.052 0-3.283 0-6.358 1.611-8.226 4.313l-40.776 58.983-76.984-113.882c-1.85-2.736-4.93-4.382-8.232-4.399-.018 0-.035 0-.053 0-3.282 0-6.357 1.611-8.225 4.313l-84.125 121.687h-22.065v-155h324zm55-136.5c0 5.79-4.71 10.5-10.5 10.5h-24.5v-39c0-5.523-4.477-10-10-10h-344c-5.523 0-10 4.477-10 10v39h-24.5c-5.79 0-10.5-4.71-10.5-10.5v-57c0-5.79 4.71-10.5 10.5-10.5h161.563c5.523 0 10-4.477 10-10s-4.477-10-10-10h-137.063v-221.921c0-14.38 11.699-26.079 26.079-26.079h311.842c14.38 0 26.079 11.699 26.079 26.079v221.921h-136.937c-5.523 0-10 4.477-10 10s4.477 10 10 10h161.437c5.79 0 10.5 4.71 10.5 10.5z"/><path id="XMLID_1260_" d="m256.06 267.94c-2.63 0-5.21 1.06-7.07 2.93-1.86 1.86-2.93 4.43-2.93 7.07 0 2.63 1.07 5.21 2.93 7.07s4.44 2.93 7.07 2.93c2.64 0 5.21-1.07 7.07-2.93 1.87-1.86 2.93-4.44 2.93-7.07s-1.06-5.21-2.93-7.07c-1.86-1.87-4.43-2.93-7.07-2.93z"/></g></g></svg>